<?xml version="1.0" encoding="UTF-8"?>
<svg width="337px" height="118px" viewBox="0 0 337 118" version="1.1" xmlns="http://www.w3.org/2000/svg" xmlns:xlink="http://www.w3.org/1999/xlink">
    <title>Group</title>
    <g id="Page-1" stroke="none" stroke-width="1" fill="none" fill-rule="evenodd">
        <g id="logo" transform="translate(-72.000000, -108.000000)">
            <g id="Group" transform="translate(72.964455, 108.242083)">
                <g id="Group-3" transform="translate(0.035545, 22.757917)">
                    <path d="M52.5,9 C75.9721019,9 95,28.0278981 95,51.5 C95,74.9721019 75.9721019,94 52.5,94 C29.0278981,94 10,74.9721019 10,51.5 C10,47.4302874 10.5720241,43.4941782 11.6400567,39.7676881 L52.4785925,53.3815776 L38.4744806,11.3687239 C42.8655693,9.83419816 47.5853659,9 52.5,9 Z" id="Combined-Shape" fill="#2B4C9F"></path>
                    <path d="M30.3531472,0.667391253 L46,47 L0.785906911,32.12285 C4.95577053,17.45347 16.0720289,5.70780539 30.3531472,0.667391253 Z" id="Combined-Shape" fill="#FFDF39"></path>
                </g>
                <g id="Group-2" transform="translate(96.535545, 0.757917)">
                    <path d="M13.0546875,115.996094 C17.3190104,115.996094 19.4511719,113.066406 19.4511719,107.207031 L19.4511719,107.207031 L19.4511719,87.1875 C21.7949219,90.1497396 24.2607422,92.3958333 26.8486328,93.9257812 C29.4365234,95.4557292 32.6347656,96.2207031 36.4433594,96.2207031 C39.6009115,96.2207031 42.555013,95.5940755 45.3056641,94.3408203 C48.0563151,93.0875651 50.4407552,91.2972005 52.4589844,88.9697266 C54.4772135,86.6422526 56.0641276,83.7613932 57.2197266,80.3271484 C58.3753255,76.8929036 58.953125,73.125 58.953125,69.0234375 C58.953125,63.4570312 57.9521484,58.6393229 55.9501953,54.5703125 C53.9482422,50.5013021 51.2220052,47.4088542 47.7714844,45.2929688 C44.3209635,43.1770833 40.5449219,42.1191406 36.4433594,42.1191406 C33.0253906,42.1191406 29.9654948,42.8434245 27.2636719,44.2919922 C24.561849,45.7405599 21.9576823,48.0110677 19.4511719,51.1035156 L19.4511719,51.1035156 L19.4511719,49.4921875 C19.4511719,47.0833333 18.8570964,45.2360026 17.6689453,43.9501953 C16.4807943,42.664388 14.9427083,42.0214844 13.0546875,42.0214844 C11.1341146,42.0214844 9.62044271,42.648112 8.51367188,43.9013672 C7.40690104,45.1546224 6.85351562,47.0507812 6.85351562,49.5898438 L6.85351562,49.5898438 L6.85351562,107.109375 C6.85351562,110.00651 7.26041667,112.211914 8.07421875,113.725586 C8.88802083,115.239258 10.5481771,115.996094 13.0546875,115.996094 Z M33.171875,85.9179688 C29.4609375,85.9179688 26.3522135,84.444987 23.8457031,81.4990234 C21.3391927,78.5530599 20.0859375,74.4270833 20.0859375,69.1210938 C20.0859375,63.4895833 21.3473307,59.2252604 23.8701172,56.328125 C26.3929036,53.4309896 29.4934896,51.9824219 33.171875,51.9824219 C35.4830729,51.9824219 37.5908203,52.6578776 39.4951172,54.0087891 C41.3994141,55.3597005 42.8886719,57.2965495 43.9628906,59.8193359 C45.0371094,62.3421224 45.5742188,65.3613281 45.5742188,68.8769531 C45.5742188,72.5227865 45.0045573,75.6315104 43.8652344,78.203125 C42.7259115,80.7747396 41.2122396,82.7034505 39.3242188,83.9892578 C37.4361979,85.2750651 35.3854167,85.9179688 33.171875,85.9179688 Z M76.3847656,35.8203125 C78.1751302,35.8203125 79.7213542,35.242513 81.0234375,34.0869141 C82.3255208,32.9313151 82.9765625,31.328125 82.9765625,29.2773438 C82.9765625,27.1614583 82.3092448,25.5501302 80.9746094,24.4433594 C79.639974,23.3365885 78.110026,22.7832031 76.3847656,22.7832031 C74.594401,22.7832031 73.023763,23.3935547 71.6728516,24.6142578 C70.3219401,25.8349609 69.6464844,27.3893229 69.6464844,29.2773438 C69.6464844,31.3606771 70.3056641,32.9720052 71.6240234,34.1113281 C72.9423828,35.250651 74.5292969,35.8203125 76.3847656,35.8203125 Z M76.2382812,96.2207031 C78.1914062,96.2207031 79.8027344,95.5371094 81.0722656,94.1699219 C82.3417969,92.8027344 82.9765625,90.7845052 82.9765625,88.1152344 L82.9765625,88.1152344 L82.9765625,49.5898438 C82.9765625,47.2135417 82.3417969,45.3580729 81.0722656,44.0234375 C79.8027344,42.6888021 78.1914062,42.0214844 76.2382812,42.0214844 C74.2851562,42.0214844 72.6982422,42.6888021 71.4775391,44.0234375 C70.2568359,45.3580729 69.6464844,47.34375 69.6464844,49.9804688 L69.6464844,49.9804688 L69.6464844,88.1152344 C69.6464844,90.719401 70.2568359,92.7213542 71.4775391,94.1210938 C72.6982422,95.5208333 74.2851562,96.2207031 76.2382812,96.2207031 Z M137.664062,96.2207031 C139.486979,96.2207031 140.976237,95.5859375 142.131836,94.3164062 C143.287435,93.046875 143.865234,91.1425781 143.865234,88.6035156 L143.865234,88.6035156 L143.865234,49.9804688 C143.865234,47.3111979 143.263021,45.3173828 142.058594,43.9990234 C140.854167,42.6806641 139.259115,42.0214844 137.273438,42.0214844 C135.28776,42.0214844 133.676432,42.6888021 132.439453,44.0234375 C131.202474,45.3580729 130.583984,47.34375 130.583984,49.9804688 L130.583984,49.9804688 L130.583164,66.7037984 C130.563476,72.7934396 130.1894,76.7567568 129.460938,78.59375 C128.549479,80.7421875 127.100911,82.483724 125.115234,83.8183594 C123.129557,85.1529948 121.013672,85.8203125 118.767578,85.8203125 C116.45638,85.8203125 114.625326,85.226237 113.274414,84.0380859 C111.923503,82.8499349 110.98763,81.2060547 110.466797,79.1064453 C109.945964,77.0068359 109.685547,74.4108073 109.685547,71.3183594 L109.685547,71.3183594 L109.685547,49.9804688 C109.685547,47.34375 109.067057,45.3580729 107.830078,44.0234375 C106.593099,42.6888021 104.965495,42.0214844 102.947266,42.0214844 C100.961589,42.0214844 99.3665365,42.6806641 98.1621094,43.9990234 C96.9576823,45.3173828 96.3554688,47.3111979 96.3554688,49.9804688 L96.3554688,49.9804688 L96.3554688,76.3964844 C96.3554688,81.702474 97.1855469,85.7714844 98.8457031,88.6035156 C100.245443,90.9472656 102.222982,92.7864583 104.77832,94.1210938 C107.333659,95.4557292 110.222656,96.1230469 113.445312,96.1230469 C116.114583,96.1230469 118.490885,95.789388 120.574219,95.1220703 C122.657552,94.4547526 124.578125,93.4375 126.335938,92.0703125 C128.09375,90.703125 129.770182,89.0104167 131.365234,86.9921875 L131.365234,86.9921875 L131.365234,88.7011719 C131.365234,91.077474 131.95931,92.9248047 133.147461,94.2431641 C134.335612,95.5615234 135.841146,96.2207031 137.664062,96.2207031 Z M225.75,96.2207031 C227.833333,96.2207031 229.509766,95.5208333 230.779297,94.1210938 C232.048828,92.7213542 232.683594,90.6217448 232.683594,87.8222656 L232.683594,87.8222656 L232.683594,61.796875 C232.683594,56.6210938 232.113932,52.828776 230.974609,50.4199219 C229.672526,47.750651 227.703125,45.6998698 225.066406,44.2675781 C222.429688,42.8352865 219.288411,42.1191406 215.642578,42.1191406 C212.517578,42.1191406 209.669271,42.7783203 207.097656,44.0966797 C204.526042,45.4150391 202.117188,47.4414062 199.871094,50.1757812 C198.308594,47.4739583 196.322917,45.4557292 193.914062,44.1210938 C191.505208,42.7864583 188.624349,42.1191406 185.271484,42.1191406 C182.048828,42.1191406 179.119141,42.7701823 176.482422,44.0722656 C173.845703,45.374349 171.371745,47.4088542 169.060547,50.1757812 L169.060547,50.1757812 L169.060547,48.90625 C169.060547,46.7578125 168.450195,45.0732422 167.229492,43.8525391 C166.008789,42.6318359 164.486979,42.0214844 162.664062,42.0214844 C160.776042,42.0214844 159.254232,42.672526 158.098633,43.9746094 C156.943034,45.2766927 156.365234,47.1809896 156.365234,49.6875 L156.365234,49.6875 L156.365234,87.8222656 C156.365234,90.5891927 157.008138,92.6806641 158.293945,94.0966797 C159.579753,95.5126953 161.231771,96.2207031 163.25,96.2207031 C165.300781,96.2207031 166.952799,95.5126953 168.206055,94.0966797 C169.45931,92.6806641 170.085938,90.5891927 170.085938,87.8222656 L170.085938,87.8222656 L170.085938,69.8046875 C170.085938,64.2057292 170.777669,59.9088542 172.161133,56.9140625 C173.544596,53.9192708 176.417318,52.421875 180.779297,52.421875 C182.960286,52.421875 184.555339,53.0159505 185.564453,54.2041016 C186.573568,55.3922526 187.192057,56.9140625 187.419922,58.7695312 C187.647786,60.625 187.761719,63.2291667 187.761719,66.5820312 L187.761719,66.5820312 L187.761719,87.8222656 C187.761719,90.6217448 188.388346,92.7213542 189.641602,94.1210938 C190.894857,95.5208333 192.530599,96.2207031 194.548828,96.2207031 C196.632161,96.2207031 198.308594,95.5208333 199.578125,94.1210938 C200.847656,92.7213542 201.482422,90.6217448 201.482422,87.8222656 L201.482422,87.8222656 L201.482422,70.0976562 C201.482422,64.4010417 201.970703,60.4296875 202.947266,58.1835938 C203.826172,56.4257812 205.055013,55.0260417 206.633789,53.984375 C208.212565,52.9427083 209.880859,52.421875 211.638672,52.421875 C213.819661,52.421875 215.447266,53.0078125 216.521484,54.1796875 C217.595703,55.3515625 218.254883,56.8001302 218.499023,58.5253906 C218.743164,60.250651 218.865234,62.5455729 218.865234,65.4101562 L218.865234,65.4101562 L218.865234,87.8222656 C218.865234,90.5891927 219.508138,92.6806641 220.793945,94.0966797 C222.079753,95.5126953 223.731771,96.2207031 225.75,96.2207031 Z" id="pium" fill="#2B4C9F" fill-rule="nonzero"></path>
                    <rect id="Rectangle" fill="#FFDF39" x="66.5" y="20" width="18" height="18" rx="8"></rect>
                </g>
            </g>
        </g>
    </g>
</svg>